HIERARCHY
ROOT Hips
{
  OFFSET 5.84602e-005 68.8428 3.50346
  CHANNELS 6 Xposition Yposition Zposition Zrotation Xrotation Yrotation
  JOINT Spine
  {
    OFFSET 0 8.597 -4.6522
    CHANNELS 3 Zrotation Xrotation Yrotation
    JOINT Spine1
    {
      OFFSET 0 7.8454 0.4098
      CHANNELS 3 Zrotation Xrotation Yrotation
      JOINT Spine2
      {
        OFFSET 0 9.7078 -2.1609
        CHANNELS 3 Zrotation Xrotation Yrotation
        JOINT Neck
        {
          OFFSET 0 21.8761 -0.4549
          CHANNELS 3 Zrotation Xrotation Yrotation
          JOINT Head
          {
            OFFSET 0 12.3537 3.3602
            CHANNELS 3 Zrotation Xrotation Yrotation
            End Site
            {
              OFFSET 0.0001 18.9506 0.5657
            }
          }
        }
        JOINT LeftShoulder
        {
          OFFSET 2.2086 21.1115 7.2329
          CHANNELS 3 Zrotation Xrotation Yrotation
          JOINT LeftArm
          {
            OFFSET 13.1193 3.0282 -4.8998
            CHANNELS 3 Zrotation Xrotation Yrotation
            JOINT LeftForeArm
            {
              OFFSET 27.4081 -0.0973053 -0.2375
              CHANNELS 3 Zrotation Xrotation Yrotation
              JOINT LeftHand
              {
                OFFSET 22.8641 0.0662994 -0.1369
                CHANNELS 3 Zrotation Xrotation Yrotation
                JOINT LeftHandIndex1
                {
                  OFFSET 8.8614 0.775009 2.4612
                  CHANNELS 3 Zrotation Xrotation Yrotation
                  JOINT LeftHandIndex2
                  {
                    OFFSET 3.3146 -0.808304 0.5841
                    CHANNELS 3 Zrotation Xrotation Yrotation
                    JOINT LeftHandIndex3
                    {
                      OFFSET 2.2628 -0.552002 0.3989
                      CHANNELS 3 Zrotation Xrotation Yrotation
                      End Site
                      {
                        OFFSET 1.6102 -0.4807 0.2612
                      }
                    }
                  }
                }
                JOINT LeftHandMiddle1
                {
                  OFFSET 8.9937 0.895004 0.2143
                  CHANNELS 3 Zrotation Xrotation Yrotation
                  JOINT LeftHandMiddle2
                  {
                    OFFSET 4.0984 0.0113983 -0.0242
                    CHANNELS 3 Zrotation Xrotation Yrotation
                    JOINT LeftHandMiddle3
                    {
                      OFFSET 2.2716 0.00689697 -0.0138001
                      CHANNELS 3 Zrotation Xrotation Yrotation
                      End Site
                      {
                        OFFSET 2.0404 -0.1441 0.0027
                      }
                    }
                  }
                }
                JOINT LeftHandRing1
                {
                  OFFSET 8.5234 0.597198 -2.0164
                  CHANNELS 3 Zrotation Xrotation Yrotation
                  JOINT LeftHandRing2
                  {
                    OFFSET 3.7188 -0.188293 -0.2328
                    CHANNELS 3 Zrotation Xrotation Yrotation
                    JOINT LeftHandRing3
                    {
                      OFFSET 2.1191 -0.106598 -0.1332
                      CHANNELS 3 Zrotation Xrotation Yrotation
                      End Site
                      {
                        OFFSET 1.8737 -0.2304 -0.0886
                      }
                    }
                  }
                }
                JOINT LeftHandPinky1
                {
                  OFFSET 7.9094 -0.601089 -3.4825
                  CHANNELS 3 Zrotation Xrotation Yrotation
                  JOINT LeftHandPinky2
                  {
                    OFFSET 2.2874 -0.477005 -0.6314
                    CHANNELS 3 Zrotation Xrotation Yrotation
                    JOINT LeftHandPinky3
                    {
                      OFFSET 1.6774 -0.349396 -0.4633
                      CHANNELS 3 Zrotation Xrotation Yrotation
                      End Site
                      {
                        OFFSET 1.4888 -0.4091 -0.3416
                      }
                    }
                  }
                }
                JOINT LeftHandThumb1
                {
                  OFFSET 1.833 -1.3875 1.3896
                  CHANNELS 3 Zrotation Xrotation Yrotation
                  JOINT LeftHandThumb2
                  {
                    OFFSET 3.4129 -1.121 2.5732
                    CHANNELS 3 Zrotation Xrotation Yrotation
                    JOINT LeftHandThumb3
                    {
                      OFFSET 2.2474 -0.804199 1.6192
                      CHANNELS 3 Zrotation Xrotation Yrotation
                      End Site
                      {
                        OFFSET 1.6527 -0.5689 1.1317
                      }
                    }
                  }
                }
              }
            }
          }
        }
        JOINT RightShoulder
        {
          OFFSET -2.2086 21.1115 7.2329
          CHANNELS 3 Zrotation Xrotation Yrotation
          JOINT RightArm
          {
            OFFSET -13.1216 3.0287 -4.9007
            CHANNELS 3 Zrotation Xrotation Yrotation
            JOINT RightForeArm
            {
              OFFSET -27.4081 -0.0973053 -0.2375
              CHANNELS 3 Zrotation Xrotation Yrotation
              JOINT RightHand
              {
                OFFSET -22.8641 0.0664063 -0.1369
                CHANNELS 3 Zrotation Xrotation Yrotation
                JOINT RightHandIndex1
                {
                  OFFSET -8.8614 0.774994 2.4612
                  CHANNELS 3 Zrotation Xrotation Yrotation
                  JOINT RightHandIndex2
                  {
                    OFFSET -3.3146 -0.808304 0.5841
                    CHANNELS 3 Zrotation Xrotation Yrotation
                    JOINT RightHandIndex3
                    {
                      OFFSET -2.2628 -0.552002 0.3989
                      CHANNELS 3 Zrotation Xrotation Yrotation
                      End Site
                      {
                        OFFSET -1.6102 -0.4807 0.2612
                      }
                    }
                  }
                }
                JOINT RightHandMiddle1
                {
                  OFFSET -8.9937 0.894989 0.2143
                  CHANNELS 3 Zrotation Xrotation Yrotation
                  JOINT RightHandMiddle2
                  {
                    OFFSET -4.0984 0.0113983 -0.0242
                    CHANNELS 3 Zrotation Xrotation Yrotation
                    JOINT RightHandMiddle3
                    {
                      OFFSET -2.2716 0.00691223 -0.0138001
                      CHANNELS 3 Zrotation Xrotation Yrotation
                      End Site
                      {
                        OFFSET -2.0404 -0.1441 0.0027
                      }
                    }
                  }
                }
                JOINT RightHandRing1
                {
                  OFFSET -8.5234 0.597198 -2.0164
                  CHANNELS 3 Zrotation Xrotation Yrotation
                  JOINT RightHandRing2
                  {
                    OFFSET -3.7188 -0.188309 -0.2328
                    CHANNELS 3 Zrotation Xrotation Yrotation
                    JOINT RightHandRing3
                    {
                      OFFSET -2.1191 -0.106598 -0.1332
                      CHANNELS 3 Zrotation Xrotation Yrotation
                      End Site
                      {
                        OFFSET -1.8737 -0.2304 -0.0886
                      }
                    }
                  }
                }
                JOINT RightHandPinky1
                {
                  OFFSET -7.9094 -0.601105 -3.4825
                  CHANNELS 3 Zrotation Xrotation Yrotation
                  JOINT RightHandPinky2
                  {
                    OFFSET -2.2874 -0.477005 -0.6314
                    CHANNELS 3 Zrotation Xrotation Yrotation
                    JOINT RightHandPinky3
                    {
                      OFFSET -1.6774 -0.349396 -0.4633
                      CHANNELS 3 Zrotation Xrotation Yrotation
                      End Site
                      {
                        OFFSET -1.4888 -0.4091 -0.3416
                      }
                    }
                  }
                }
                JOINT RightHandThumb1
                {
                  OFFSET -1.833 -1.38751 1.3896
                  CHANNELS 3 Zrotation Xrotation Yrotation
                  JOINT RightHandThumb2
                  {
                    OFFSET -3.41299 -1.12099 2.5732
                    CHANNELS 3 Zrotation Xrotation Yrotation
                    JOINT RightHandThumb3
                    {
                      OFFSET -2.24741 -0.804108 1.6192
                      CHANNELS 3 Zrotation Xrotation Yrotation
                      End Site
                      {
                        OFFSET -1.6527 -0.5689 1.1317
                      }
                    }
                  }
                }
              }
            }
          }
        }
      }
    }
  }
  JOINT RightUpLeg
  {
    OFFSET -9.1966 3.8861 -0.7581
    CHANNELS 3 Zrotation Xrotation Yrotation
    JOINT RightLeg
    {
      OFFSET -0.7359 -41.0265 0
      CHANNELS 3 Zrotation Xrotation Yrotation
      JOINT RightFoot
      {
        OFFSET 0 -40.2855 0
        CHANNELS 3 Zrotation Xrotation Yrotation
        JOINT RightToeBase
        {
          OFFSET 0 -5.6122 11.7359
          CHANNELS 3 Zrotation Xrotation Yrotation
          End Site
          {
            OFFSET 0 0 7.8731
          }
        }
      }
    }
  }
  JOINT LeftUpLeg
  {
    OFFSET 9.1965 3.8864 -0.7581
    CHANNELS 3 Zrotation Xrotation Yrotation
    JOINT LeftLeg
    {
      OFFSET 0.7359 -41.0268 0
      CHANNELS 3 Zrotation Xrotation Yrotation
      JOINT LeftFoot
      {
        OFFSET 0 -40.2855 0
        CHANNELS 3 Zrotation Xrotation Yrotation
        JOINT LeftToeBase
        {
          OFFSET 0 -5.6122 11.7359
          CHANNELS 3 Zrotation Xrotation Yrotation
          End Site
          {
            OFFSET 0 0 7.8731
          }
        }
      }
    }
  }
}
MOTION
Frames:	5
Frame Time:	0.0333333
20.1663 45.9477 -33.1485 -0.0025415 17.9983 5.99931 -5.73998 14.7956 4.71931 -13.4489 28.9495 11.5905 -13.4489 28.9495 11.5905 -0.00219394 -17.0008 -16.0012 -15.0752 -30.1213 -25.7002 9.80618 -26.5378 -47.8435 -9.36656 -2.09718 -20.9721 -18.9769 -10.4556 -61.3347 -48.6521 -41.1708 1.27963 -3.97569e-015 9.54166e-015 -7.95139e-015 8.68255e-008 -2.34607e-007 -8.10672e-007 -4.77083e-015 -1.59028e-015 -0 -3.97569e-015 9.54166e-015 -7.95139e-015 -0.0146179 -8.77937e-005 1.32488e-006 -9.93923e-015 -6.36111e-015 -3.18055e-015 -3.97569e-015 9.54166e-015 -7.95139e-015 -0.0187595 -0.00117752 5.8079e-005 2.38542e-015 -3.18055e-015 -4.77083e-015 -3.97569e-015 9.54166e-015 -7.95139e-015 -0.0122984 -0.00325383 0.000674487 -3.57812e-015 1.59028e-015 -0 -3.97569e-015 9.54166e-015 -7.95139e-015 8.68255e-008 -2.34607e-007 -8.10672e-007 -4.77083e-015 -1.59028e-015 -0 -12.0206 -3.45351 -15.4798 26.5868 -35.4887 64.7384 -19.9956 -4.80501 54.8166 10.8308 -1.5601 -6.06851 6.36111e-015 0 3.18055e-015 -3.24917e-006 2.69417e-007 3.74653e-006 3.18055e-015 0 -3.18055e-015 6.36111e-015 0 3.18055e-015 0.0150032 -8.99683e-005 -1.4203e-006 -6.36111e-015 -6.36111e-015 -0 6.36111e-015 0 3.18055e-015 0.0189746 -0.00119274 -5.85982e-005 -3.18055e-015 3.18055e-015 6.36111e-015 6.36111e-015 0 3.18055e-015 0.0122632 -0.0032477 -0.000670703 1.47081e-006 -5.76805e-007 -2.16671e-006 6.36111e-015 0 3.18055e-015 -3.24917e-006 2.69417e-007 3.74653e-006 3.18055e-015 0 -3.18055e-015 -32.6271 -54.2872 -37.405 -174.629 37.7659 171.408 6.16475 48.3362 -10.0461 1.38169e-007 7.96149e-008 5.09168e-007 44.9789 -47.7255 47.861 174.954 37.4371 -171.549 4.78592 53.817 9.77447 -1.48273e-006 -3.19535e-007 1.11492e-006 
20.1663 45.9477 -33.1485 -0.0025415 17.9983 5.99931 -5.74173 14.7287 4.70035 -13.4333 28.8189 11.5367 -13.4333 28.8189 11.5366 -0.00204526 -17.0008 -16.0012 -15.0752 -30.1213 -25.7003 9.74104 -26.162 -48.1745 -9.36657 -2.09717 -20.9721 -18.7925 -10.791 -60.4431 -49.1859 -40.7628 0.84381 8.64723e-008 -2.33945e-007 -8.10933e-007 -2.68385e-007 -3.43042e-007 1.85581e-006 -3.24373e-006 3.81764e-007 -3.45889e-007 8.64723e-008 -2.33945e-007 -8.10933e-007 -0.0146041 -8.88723e-005 -6.82196e-007 -3.24385e-006 3.81807e-007 -3.45838e-007 8.64723e-008 -2.33945e-007 -8.10933e-007 -0.018742 -0.00117321 6.05002e-005 -2.76477e-006 5.72243e-008 -3.18653e-007 8.64723e-008 -2.33945e-007 -8.10933e-007 -0.012255 -0.00324389 0.0006756 -3.24384e-006 3.81793e-007 -3.45751e-007 8.64723e-008 -2.33945e-007 -8.10933e-007 -2.68385e-007 -3.43042e-007 1.85581e-006 -3.24373e-006 3.81764e-007 -3.45889e-007 -11.6265 -3.26911 -15.0444 26.7795 -35.2718 64.5137 -20.4268 -5.23597 54.5869 10.6333 -1.468 -5.75187 -1.37986e-006 6.25343e-007 2.21939e-006 0 0 -3.18055e-015 1.37986e-006 -6.25343e-007 -2.21939e-006 -1.37986e-006 6.25343e-007 2.21939e-006 0.0149747 -9.44802e-005 -1.8053e-006 -1.38173e-006 6.25645e-007 2.21931e-006 -1.37986e-006 6.25343e-007 2.21939e-006 0.0189741 -0.00119184 -5.8256e-005 3.18055e-015 -3.18055e-015 6.36111e-015 -1.37986e-006 6.25343e-007 2.21939e-006 0.0122718 -0.00324775 -0.000673153 0 0 -6.36111e-015 -1.37986e-006 6.25343e-007 2.21939e-006 0 0 -3.18055e-015 1.37986e-006 -6.25343e-007 -2.21939e-006 -32.6271 -54.2872 -37.405 -174.629 37.7659 171.408 6.16475 48.3362 -10.0461 1.38169e-007 7.96149e-008 5.09168e-007 44.9789 -47.7255 47.861 174.954 37.4371 -171.549 4.78592 53.817 9.77447 -1.48273e-006 -3.19535e-007 1.11492e-006 
20.1663 45.9477 -33.1485 -0.0025415 17.9983 5.99931 -5.74345 14.6617 4.68138 -13.4178 28.6883 11.4828 -13.4178 28.6883 11.4828 -0.0023112 -17.0007 -16.0012 -15.0752 -30.1213 -25.7002 9.67849 -25.7859 -48.5041 -9.36658 -2.09716 -20.9721 -18.6023 -11.1239 -59.5484 -49.7125 -40.3515 0.415454 -2.02227e-007 6.74958e-007 -1.8784e-006 -1.38756e-006 2.52085e-008 -1.60863e-007 2.67421e-007 3.44621e-007 -1.85567e-006 -2.02227e-007 6.74958e-007 -1.8784e-006 -0.0145973 -8.76421e-005 6.00106e-007 2.67406e-007 3.44858e-007 -1.85562e-006 -2.02227e-007 6.74958e-007 -1.8784e-006 -0.0187697 -0.00117725 5.78475e-005 2.67385e-007 3.44924e-007 -1.85561e-006 -2.02227e-007 6.74958e-007 -1.8784e-006 -0.0122506 -0.00324335 0.000675006 2.67359e-007 3.44815e-007 -1.85564e-006 -2.02227e-007 6.74958e-007 -1.8784e-006 -1.38756e-006 2.52085e-008 -1.60863e-007 2.67421e-007 3.44621e-007 -1.85567e-006 -11.2336 -3.08164 -14.6102 26.9726 -35.0555 64.2887 -20.8602 -5.6654 54.3537 10.4353 -1.37698 -5.43489 -3.57141e-006 1.79139e-007 -6.03508e-008 -1.77705e-006 -4.20542e-007 -6.56207e-007 -7.39738e-006 -8.06273e-007 7.24142e-007 -3.57141e-006 1.79139e-007 -6.03508e-008 0.0150125 -9.37153e-005 -5.21584e-006 -3.57124e-006 1.7913e-007 -6.03713e-008 -3.57141e-006 1.79139e-007 -6.03508e-008 0.0190067 -0.00119288 -5.50422e-005 -3.57119e-006 1.79114e-007 -6.03439e-008 -3.57141e-006 1.79139e-007 -6.03508e-008 0.0122613 -0.00324544 -0.000674685 -7.39619e-006 -8.06548e-007 7.24374e-007 -3.57141e-006 1.79139e-007 -6.03508e-008 -1.77705e-006 -4.20542e-007 -6.56207e-007 -7.39738e-006 -8.06273e-007 7.24142e-007 -32.6271 -54.2872 -37.405 -174.629 37.7659 171.408 6.16475 48.3362 -10.0461 1.38169e-007 7.96149e-008 5.09168e-007 44.9789 -47.7255 47.861 174.954 37.4371 -171.549 4.78592 53.817 9.77447 -1.48273e-006 -3.19535e-007 1.11492e-006 
20.1663 45.9477 -33.1485 -0.0025415 17.9983 5.99931 -5.74516 14.5947 4.6624 -13.4023 28.5576 11.4291 -13.4023 28.5577 11.4291 -0.00214741 -17.0007 -16.0012 -15.0752 -30.1213 -25.7003 9.61854 -25.4093 -48.8322 -9.36657 -2.09717 -20.9721 -18.4065 -11.4541 -58.6508 -50.2321 -39.9371 -0.0054763 -8.5758e-008 2.32625e-007 8.11445e-007 -8.5758e-008 2.32625e-007 8.11445e-007 -8.5758e-008 2.32625e-007 8.11445e-007 -8.5758e-008 2.32625e-007 8.11445e-007 -0.0146196 -8.75173e-005 2.11102e-006 -8.57453e-008 2.32521e-007 8.11475e-007 -8.5758e-008 2.32625e-007 8.11445e-007 -0.018778 -0.00117764 6.08792e-005 -8.5734e-008 2.32493e-007 8.11484e-007 -8.5758e-008 2.32625e-007 8.11445e-007 -0.0122661 -0.00324835 0.000676607 -8.57235e-008 2.32541e-007 8.11472e-007 -8.5758e-008 2.32625e-007 8.11445e-007 -8.5758e-008 2.32625e-007 8.11445e-007 -8.5758e-008 2.32625e-007 8.11445e-007 -10.8422 -2.89117 -14.1771 27.1664 -34.8398 64.0634 -21.2959 -6.09323 54.1169 10.2368 -1.28704 -5.11754 3.87357e-006 1.04408e-006 -7.66377e-007 -9.54166e-015 3.18055e-015 6.36111e-015 0 0 -0 3.87357e-006 1.04408e-006 -7.66377e-007 0.01497 -8.82016e-005 4.45983e-007 -3.18055e-015 -9.54166e-015 -6.36111e-015 3.87357e-006 1.04408e-006 -7.66377e-007 0.0190016 -0.00118991 -5.19742e-005 3.18055e-015 -3.18055e-015 9.54166e-015 3.87357e-006 1.04408e-006 -7.66377e-007 0.0122642 -0.00324798 -0.000680837 6.36111e-015 -3.18055e-015 -3.18055e-015 3.87357e-006 1.04408e-006 -7.66377e-007 -9.54166e-015 3.18055e-015 6.36111e-015 0 0 -0 -32.6271 -54.2872 -37.405 -174.629 37.7659 171.408 6.16475 48.3362 -10.0461 -8.25635e-007 1.88002e-006 6.1598e-007 44.9789 -47.7255 47.861 174.954 37.4371 -171.549 4.78592 53.817 9.77447 -1.48273e-006 -3.19535e-007 1.11492e-006 
20.1663 45.9477 -33.1485 -0.0025415 17.9983 5.99931 -5.74684 14.5277 4.64342 -13.3869 28.427 11.3754 -13.3869 28.427 11.3754 -0.00229065 -17.0007 -16.0012 -15.0752 -30.1213 -25.7002 9.56113 -25.0323 -49.159 -9.36657 -2.09716 -20.9721 -18.205 -11.7815 -57.7502 -50.7449 -39.5196 -0.419146 -3.24679e-006 3.79001e-007 -3.41588e-007 8.53971e-008 -2.31965e-007 -8.11697e-007 -3.24679e-006 3.79001e-007 -3.41588e-007 -3.24679e-006 3.79001e-007 -3.41588e-007 -0.014595 -8.91939e-005 2.11358e-006 -3.24691e-006 3.79044e-007 -3.41537e-007 -3.24679e-006 3.79001e-007 -3.41588e-007 -0.0187471 -0.00117479 5.95343e-005 -3.24694e-006 3.79049e-007 -3.41492e-007 -3.24679e-006 3.79001e-007 -3.41588e-007 -0.0122813 -0.00324981 0.000677228 -3.24689e-006 3.79031e-007 -3.4145e-007 -3.24679e-006 3.79001e-007 -3.41588e-007 8.53971e-008 -2.31965e-007 -8.11697e-007 -3.24679e-006 3.79001e-007 -3.41588e-007 -10.4521 -2.69765 -13.7453 27.3607 -34.6247 63.8377 -21.7339 -6.51942 53.8766 10.0377 -1.19819 -4.79986 -3.18055e-015 -3.18055e-015 -9.54166e-015 -5.19079e-006 -1.40832e-007 -5.83536e-007 -5.73025e-006 7.74227e-007 -3.23333e-006 -3.18055e-015 -3.18055e-015 -9.54166e-015 0.0150026 -9.16819e-005 -4.88753e-006 -4.73785e-006 5.57469e-007 -3.48996e-006 -3.18055e-015 -3.18055e-015 -9.54166e-015 0.0190006 -0.00119585 -6.40865e-005 -5.72884e-006 7.73596e-007 -3.23341e-006 -3.18055e-015 -3.18055e-015 -9.54166e-015 0.0122239 -0.00323727 -0.000672764 -4.73795e-006 5.5752e-007 -3.48982e-006 -3.18055e-015 -3.18055e-015 -9.54166e-015 -5.19079e-006 -1.40832e-007 -5.83536e-007 -5.73025e-006 7.74227e-007 -3.23333e-006 -32.6271 -54.2872 -37.405 -174.629 37.7659 171.408 6.16475 48.3362 -10.0461 1.38169e-007 7.96149e-008 5.09168e-007 44.9789 -47.7255 47.861 174.954 37.4371 -171.549 4.78592 53.817 9.77447 -1.48273e-006 -3.19535e-007 1.11492e-006 
